<svg width="82" height="31" viewBox="0 0 82 31" fill="none" xmlns="http://www.w3.org/2000/svg">
<path d="M0 13.1994C0 18.8327 4.60503 23.3998 10.2857 23.3998C15.3612 23.3998 19.5749 19.7525 20.416 14.9588C20.5162 14.3864 20.5714 13.7999 20.5714 13.1994C20.5714 12.6004 20.5162 12.0127 20.416 11.4411H12.2954V14.9588H16.5753C16.0614 17.6211 13.4417 19.6482 10.2857 19.6482C6.69464 19.6482 3.78306 16.7613 3.78306 13.1994C3.78306 9.63861 6.69464 6.7517 10.2857 6.7517C12.1411 6.7517 13.8139 7.52414 14.9991 8.7599L17.6741 6.10725C15.8044 4.19204 13.1863 2.99976 10.2857 2.99976C4.60503 2.99976 0 7.56641 0 13.1994Z" fill="#EB2B51"/>
<path d="M21.7893 11.3998L21.7815 22.5998H25.6095L25.6178 14.9H29.4454V11.3998H21.7893Z" fill="#EB2B51"/>
<path d="M33.0615 10.5998C31.7271 10.5998 30.6411 9.52316 30.6411 8.19976C30.6411 6.87636 31.7271 5.79976 33.0615 5.79976C34.3959 5.79976 35.4814 6.87636 35.4814 8.19976C35.4814 9.52316 34.3959 10.5998 33.0615 10.5998Z" fill="#EB2B51"/>
<path d="M31.0662 11.3998L31.0588 22.5998H34.6817L34.6891 11.3998H31.0662Z" fill="#EB2B51"/>
<path fill-rule="evenodd" clip-rule="evenodd" d="M35.8992 26.9998L35.9069 11.3998H42.3052C45.4501 11.3998 48 13.9019 48 16.9872C48 20.0741 45.4501 22.5766 42.3052 22.5766H39.6954L39.6873 26.9998H35.8992ZM42.3052 14.8928H39.6954V19.0836H42.3052C43.4848 19.0836 44.4408 18.1451 44.4408 16.9872C44.4408 15.8305 43.4848 14.8928 42.3052 14.8928Z" fill="#EB2B51"/>
<path d="M55.957 6.866H59.407L65.272 22H61.96L60.856 19.171H54.508L53.404 22H50.092L55.957 6.866ZM55.497 16.595H59.89L57.705 10.477H57.659L55.497 16.595ZM69.8226 9.718V19.148H72.3066C73.0119 19.148 73.6713 19.056 74.2846 18.872C74.9133 18.6727 75.4576 18.3813 75.9176 17.998C76.3776 17.5993 76.7379 17.1087 76.9986 16.526C77.2593 15.928 77.3896 15.2303 77.3896 14.433C77.3896 13.6357 77.2593 12.9457 76.9986 12.363C76.7379 11.765 76.3776 11.2743 75.9176 10.891C75.4576 10.4923 74.9133 10.201 74.2846 10.017C73.6713 9.81767 73.0119 9.718 72.3066 9.718H69.8226ZM66.7866 22V6.866H72.3066C73.6253 6.866 74.7906 7.06533 75.8026 7.464C76.8146 7.86267 77.6579 8.407 78.3326 9.097C79.0226 9.77167 79.5439 10.569 79.8966 11.489C80.2493 12.409 80.4256 13.3903 80.4256 14.433C80.4256 15.4757 80.2493 16.457 79.8966 17.377C79.5439 18.297 79.0226 19.102 78.3326 19.792C77.6579 20.4667 76.8146 21.0033 75.8026 21.402C74.7906 21.8007 73.6253 22 72.3066 22H66.7866Z" fill="#272727"/>
</svg>
